<mxfile host="app.diagrams.net" modified="2022-08-03T03:33:52.938Z" agent="5.0 (Windows NT 10.0; Win64; x64) AppleWebKit/537.36 (KHTML, like Gecko) Chrome/103.0.0.0 Safari/537.36" etag="7JEUm8zRWhblTJ2XaQlr" version="20.2.2" type="github">
  <diagram id="C5RBs43oDa-KdzZeNtuy" name="Page-1">
    <mxGraphModel dx="1483" dy="1950" grid="1" gridSize="10" guides="1" tooltips="1" connect="1" arrows="1" fold="1" page="1" pageScale="1" pageWidth="827" pageHeight="1169" background="#F1FAEE" math="0" shadow="0">
      <root>
        <mxCell id="WIyWlLk6GJQsqaUBKTNV-0" />
        <mxCell id="WIyWlLk6GJQsqaUBKTNV-1" parent="WIyWlLk6GJQsqaUBKTNV-0" />
        <mxCell id="B0YlaRKhiyRvBtyhOVPh-0" value="EventObject" style="swimlane;fontStyle=1;align=center;verticalAlign=top;childLayout=stackLayout;horizontal=1;startSize=26;horizontalStack=0;resizeParent=1;resizeParentMax=0;resizeLast=0;collapsible=1;marginBottom=0;fillColor=#A8DADC;strokeColor=#457B9D;fontColor=#1D3557;" parent="WIyWlLk6GJQsqaUBKTNV-1" vertex="1">
          <mxGeometry x="760" y="-405" width="260" height="50" as="geometry" />
        </mxCell>
        <mxCell id="B0YlaRKhiyRvBtyhOVPh-2" value="" style="line;strokeWidth=1;fillColor=none;align=left;verticalAlign=middle;spacingTop=-1;spacingLeft=3;spacingRight=3;rotatable=0;labelPosition=right;points=[];portConstraint=eastwest;labelBackgroundColor=#F1FAEE;strokeColor=#457B9D;fontColor=#1D3557;" parent="B0YlaRKhiyRvBtyhOVPh-0" vertex="1">
          <mxGeometry y="26" width="260" height="24" as="geometry" />
        </mxCell>
        <mxCell id="B0YlaRKhiyRvBtyhOVPh-8" style="edgeStyle=orthogonalEdgeStyle;rounded=0;orthogonalLoop=1;jettySize=auto;html=1;entryX=0.5;entryY=1;entryDx=0;entryDy=0;labelBackgroundColor=#F1FAEE;strokeColor=#457B9D;fontColor=#1D3557;" parent="WIyWlLk6GJQsqaUBKTNV-1" source="B0YlaRKhiyRvBtyhOVPh-4" target="B0YlaRKhiyRvBtyhOVPh-0" edge="1">
          <mxGeometry relative="1" as="geometry" />
        </mxCell>
        <mxCell id="B0YlaRKhiyRvBtyhOVPh-9" value="继承" style="edgeLabel;html=1;align=center;verticalAlign=middle;resizable=0;points=[];labelBackgroundColor=#F1FAEE;fontColor=#1D3557;" parent="B0YlaRKhiyRvBtyhOVPh-8" vertex="1" connectable="0">
          <mxGeometry x="-0.2473" y="2" relative="1" as="geometry">
            <mxPoint as="offset" />
          </mxGeometry>
        </mxCell>
        <mxCell id="B0YlaRKhiyRvBtyhOVPh-4" value="ApplicationEvent" style="swimlane;fontStyle=1;align=center;verticalAlign=top;childLayout=stackLayout;horizontal=1;startSize=26;horizontalStack=0;resizeParent=1;resizeParentMax=0;resizeLast=0;collapsible=1;marginBottom=0;fillColor=#A8DADC;strokeColor=#457B9D;fontColor=#1D3557;" parent="WIyWlLk6GJQsqaUBKTNV-1" vertex="1">
          <mxGeometry x="765" y="-275" width="250" height="60" as="geometry" />
        </mxCell>
        <mxCell id="B0YlaRKhiyRvBtyhOVPh-6" value="" style="line;strokeWidth=1;fillColor=none;align=left;verticalAlign=middle;spacingTop=-1;spacingLeft=3;spacingRight=3;rotatable=0;labelPosition=right;points=[];portConstraint=eastwest;labelBackgroundColor=#F1FAEE;strokeColor=#457B9D;fontColor=#1D3557;" parent="B0YlaRKhiyRvBtyhOVPh-4" vertex="1">
          <mxGeometry y="26" width="250" height="8" as="geometry" />
        </mxCell>
        <mxCell id="B0YlaRKhiyRvBtyhOVPh-7" value="+ ApplicationEvent(Object source)" style="text;strokeColor=none;fillColor=none;align=left;verticalAlign=top;spacingLeft=4;spacingRight=4;overflow=hidden;rotatable=0;points=[[0,0.5],[1,0.5]];portConstraint=eastwest;fontColor=#1D3557;" parent="B0YlaRKhiyRvBtyhOVPh-4" vertex="1">
          <mxGeometry y="34" width="250" height="26" as="geometry" />
        </mxCell>
        <mxCell id="B0YlaRKhiyRvBtyhOVPh-22" style="edgeStyle=orthogonalEdgeStyle;curved=1;rounded=0;orthogonalLoop=1;jettySize=auto;html=1;entryX=0.461;entryY=0.995;entryDx=0;entryDy=0;fontColor=#1D3557;strokeColor=#457B9D;fillColor=#A8DADC;entryPerimeter=0;labelBackgroundColor=#F1FAEE;" parent="WIyWlLk6GJQsqaUBKTNV-1" source="B0YlaRKhiyRvBtyhOVPh-10" target="B0YlaRKhiyRvBtyhOVPh-17" edge="1">
          <mxGeometry relative="1" as="geometry" />
        </mxCell>
        <mxCell id="B0YlaRKhiyRvBtyhOVPh-23" value="继承" style="edgeLabel;html=1;align=center;verticalAlign=middle;resizable=0;points=[];fontColor=#1D3557;labelBackgroundColor=#F1FAEE;" parent="B0YlaRKhiyRvBtyhOVPh-22" vertex="1" connectable="0">
          <mxGeometry x="-0.4933" y="-3" relative="1" as="geometry">
            <mxPoint as="offset" />
          </mxGeometry>
        </mxCell>
        <mxCell id="B0YlaRKhiyRvBtyhOVPh-10" value="ContextClosedEvent" style="swimlane;fontStyle=1;align=center;verticalAlign=top;childLayout=stackLayout;horizontal=1;startSize=26;horizontalStack=0;resizeParent=1;resizeParentMax=0;resizeLast=0;collapsible=1;marginBottom=0;fontColor=#1D3557;strokeColor=#457B9D;fillColor=#A8DADC;" parent="WIyWlLk6GJQsqaUBKTNV-1" vertex="1">
          <mxGeometry x="610" y="15" width="220" height="70" as="geometry" />
        </mxCell>
        <mxCell id="B0YlaRKhiyRvBtyhOVPh-12" value="" style="line;strokeWidth=1;fillColor=none;align=left;verticalAlign=middle;spacingTop=-1;spacingLeft=3;spacingRight=3;rotatable=0;labelPosition=right;points=[];portConstraint=eastwest;fontColor=#1D3557;labelBackgroundColor=#F1FAEE;strokeColor=#457B9D;" parent="B0YlaRKhiyRvBtyhOVPh-10" vertex="1">
          <mxGeometry y="26" width="220" height="8" as="geometry" />
        </mxCell>
        <mxCell id="B0YlaRKhiyRvBtyhOVPh-13" value="+ ContextClosedEvent(Object source) " style="text;strokeColor=none;fillColor=none;align=left;verticalAlign=top;spacingLeft=4;spacingRight=4;overflow=hidden;rotatable=0;points=[[0,0.5],[1,0.5]];portConstraint=eastwest;fontColor=#1D3557;" parent="B0YlaRKhiyRvBtyhOVPh-10" vertex="1">
          <mxGeometry y="34" width="220" height="36" as="geometry" />
        </mxCell>
        <mxCell id="B0YlaRKhiyRvBtyhOVPh-18" style="edgeStyle=orthogonalEdgeStyle;rounded=0;orthogonalLoop=1;jettySize=auto;html=1;entryX=0.513;entryY=0.977;entryDx=0;entryDy=0;entryPerimeter=0;fontColor=#1D3557;strokeColor=#457B9D;fillColor=#A8DADC;curved=1;labelBackgroundColor=#F1FAEE;" parent="WIyWlLk6GJQsqaUBKTNV-1" source="B0YlaRKhiyRvBtyhOVPh-14" target="B0YlaRKhiyRvBtyhOVPh-7" edge="1">
          <mxGeometry relative="1" as="geometry" />
        </mxCell>
        <mxCell id="B0YlaRKhiyRvBtyhOVPh-19" value="继承" style="edgeLabel;html=1;align=center;verticalAlign=middle;resizable=0;points=[];fontColor=#1D3557;labelBackgroundColor=#F1FAEE;" parent="B0YlaRKhiyRvBtyhOVPh-18" vertex="1" connectable="0">
          <mxGeometry x="0.1761" y="-4" relative="1" as="geometry">
            <mxPoint as="offset" />
          </mxGeometry>
        </mxCell>
        <mxCell id="B0YlaRKhiyRvBtyhOVPh-14" value="ApplicationContextEvent" style="swimlane;fontStyle=1;align=center;verticalAlign=top;childLayout=stackLayout;horizontal=1;startSize=26;horizontalStack=0;resizeParent=1;resizeParentMax=0;resizeLast=0;collapsible=1;marginBottom=0;fontColor=#1D3557;strokeColor=#457B9D;fillColor=#A8DADC;" parent="WIyWlLk6GJQsqaUBKTNV-1" vertex="1">
          <mxGeometry x="760" y="-119" width="270" height="74" as="geometry" />
        </mxCell>
        <mxCell id="B0YlaRKhiyRvBtyhOVPh-16" value="" style="line;strokeWidth=1;fillColor=none;align=left;verticalAlign=middle;spacingTop=-1;spacingLeft=3;spacingRight=3;rotatable=0;labelPosition=right;points=[];portConstraint=eastwest;fontColor=#1D3557;labelBackgroundColor=#F1FAEE;strokeColor=#457B9D;" parent="B0YlaRKhiyRvBtyhOVPh-14" vertex="1">
          <mxGeometry y="26" width="270" height="8" as="geometry" />
        </mxCell>
        <mxCell id="B0YlaRKhiyRvBtyhOVPh-17" value="+ ApplicationContextEvent(Object source)&#xa;+ getApplicationContext()" style="text;strokeColor=none;fillColor=none;align=left;verticalAlign=top;spacingLeft=4;spacingRight=4;overflow=hidden;rotatable=0;points=[[0,0.5],[1,0.5]];portConstraint=eastwest;fontColor=#1D3557;" parent="B0YlaRKhiyRvBtyhOVPh-14" vertex="1">
          <mxGeometry y="34" width="270" height="40" as="geometry" />
        </mxCell>
        <mxCell id="B0YlaRKhiyRvBtyhOVPh-30" style="edgeStyle=orthogonalEdgeStyle;curved=1;rounded=0;orthogonalLoop=1;jettySize=auto;html=1;exitX=0.5;exitY=0;exitDx=0;exitDy=0;entryX=0.476;entryY=0.995;entryDx=0;entryDy=0;entryPerimeter=0;fontColor=#1D3557;strokeColor=#457B9D;fillColor=#A8DADC;labelBackgroundColor=#F1FAEE;" parent="WIyWlLk6GJQsqaUBKTNV-1" source="B0YlaRKhiyRvBtyhOVPh-24" target="B0YlaRKhiyRvBtyhOVPh-17" edge="1">
          <mxGeometry relative="1" as="geometry" />
        </mxCell>
        <mxCell id="B0YlaRKhiyRvBtyhOVPh-31" value="继承" style="edgeLabel;html=1;align=center;verticalAlign=middle;resizable=0;points=[];fontColor=#1D3557;labelBackgroundColor=#F1FAEE;" parent="B0YlaRKhiyRvBtyhOVPh-30" vertex="1" connectable="0">
          <mxGeometry x="0.2774" y="-1" relative="1" as="geometry">
            <mxPoint as="offset" />
          </mxGeometry>
        </mxCell>
        <mxCell id="B0YlaRKhiyRvBtyhOVPh-24" value="ContextRefreshedEvent" style="swimlane;fontStyle=1;align=center;verticalAlign=top;childLayout=stackLayout;horizontal=1;startSize=26;horizontalStack=0;resizeParent=1;resizeParentMax=0;resizeLast=0;collapsible=1;marginBottom=0;fontColor=#1D3557;strokeColor=#457B9D;fillColor=#A8DADC;" parent="WIyWlLk6GJQsqaUBKTNV-1" vertex="1">
          <mxGeometry x="930" y="15" width="240" height="70" as="geometry" />
        </mxCell>
        <mxCell id="B0YlaRKhiyRvBtyhOVPh-25" value="" style="line;strokeWidth=1;fillColor=none;align=left;verticalAlign=middle;spacingTop=-1;spacingLeft=3;spacingRight=3;rotatable=0;labelPosition=right;points=[];portConstraint=eastwest;fontColor=#1D3557;labelBackgroundColor=#F1FAEE;strokeColor=#457B9D;" parent="B0YlaRKhiyRvBtyhOVPh-24" vertex="1">
          <mxGeometry y="26" width="240" height="8" as="geometry" />
        </mxCell>
        <mxCell id="B0YlaRKhiyRvBtyhOVPh-26" value="+ ContextRefreshedEvent(Object source) " style="text;strokeColor=none;fillColor=none;align=left;verticalAlign=top;spacingLeft=4;spacingRight=4;overflow=hidden;rotatable=0;points=[[0,0.5],[1,0.5]];portConstraint=eastwest;fontColor=#1D3557;" parent="B0YlaRKhiyRvBtyhOVPh-24" vertex="1">
          <mxGeometry y="34" width="240" height="36" as="geometry" />
        </mxCell>
        <mxCell id="B0YlaRKhiyRvBtyhOVPh-32" value="&lt;font color=&quot;#ff0000&quot;&gt;&lt;span style=&quot;box-sizing: border-box; font-family: &amp;quot;Open Sans&amp;quot;, &amp;quot;Clear Sans&amp;quot;, &amp;quot;Helvetica Neue&amp;quot;, Helvetica, Arial, &amp;quot;Segoe UI Emoji&amp;quot;, sans-serif; font-size: 13px; orphans: 4; text-align: start; background-color: rgb(255, 255, 255);&quot; class=&quot;md-plain md-expand&quot;&gt;所有事件状态对象都是从 &lt;/span&gt;&lt;span style=&quot;box-sizing: border-box; font-family: &amp;quot;Open Sans&amp;quot;, &amp;quot;Clear Sans&amp;quot;, &amp;quot;Helvetica Neue&amp;quot;, Helvetica, Arial, &amp;quot;Segoe UI Emoji&amp;quot;, sans-serif; font-size: 13px; orphans: 4; text-align: start; background-color: rgb(255, 255, 255);&quot; class=&quot;md-pair-s&quot; spellcheck=&quot;false&quot;&gt;&lt;code style=&quot;box-sizing: border-box; font-family: var(--monospace); vertical-align: initial; border: 1px solid rgb(231, 234, 237); background-color: rgb(243, 244, 244); border-radius: 3px; padding: 0px 2px; font-size: 13px;&quot;&gt;EventObject&lt;/code&gt;&lt;/span&gt;&lt;span style=&quot;box-sizing: border-box; font-family: &amp;quot;Open Sans&amp;quot;, &amp;quot;Clear Sans&amp;quot;, &amp;quot;Helvetica Neue&amp;quot;, Helvetica, Arial, &amp;quot;Segoe UI Emoji&amp;quot;, sans-serif; font-size: 13px; orphans: 4; text-align: start; background-color: rgb(255, 255, 255);&quot; class=&quot;md-plain md-expand&quot;&gt; 类衍生出来&lt;/span&gt;&lt;/font&gt;" style="text;html=1;strokeColor=none;fillColor=none;align=center;verticalAlign=middle;whiteSpace=wrap;rounded=0;fontColor=#1D3557;fontSize=13;" parent="WIyWlLk6GJQsqaUBKTNV-1" vertex="1">
          <mxGeometry x="1050" y="-420" width="150" height="80" as="geometry" />
        </mxCell>
        <mxCell id="B0YlaRKhiyRvBtyhOVPh-40" value="&lt;&lt;接口&gt;&gt;&#xa;ApplicationEventMulticaster" style="swimlane;fontStyle=1;align=left;verticalAlign=top;childLayout=stackLayout;horizontal=1;startSize=40;horizontalStack=0;resizeParent=1;resizeParentMax=0;resizeLast=0;collapsible=1;marginBottom=0;fontSize=13;fontColor=#1D3557;strokeColor=#457B9D;fillColor=#A8DADC;" parent="WIyWlLk6GJQsqaUBKTNV-1" vertex="1">
          <mxGeometry x="770" y="110" width="310" height="144" as="geometry">
            <mxRectangle x="490" y="100" width="220" height="40" as="alternateBounds" />
          </mxGeometry>
        </mxCell>
        <mxCell id="B0YlaRKhiyRvBtyhOVPh-42" value="" style="line;strokeWidth=1;fillColor=none;align=left;verticalAlign=middle;spacingTop=-1;spacingLeft=3;spacingRight=3;rotatable=0;labelPosition=right;points=[];portConstraint=eastwest;fontSize=13;fontColor=#1D3557;labelBackgroundColor=#F1FAEE;strokeColor=#457B9D;" parent="B0YlaRKhiyRvBtyhOVPh-40" vertex="1">
          <mxGeometry y="40" width="310" height="8" as="geometry" />
        </mxCell>
        <mxCell id="B0YlaRKhiyRvBtyhOVPh-43" value="+ addApplicationListener(ApplicationListener&lt;?&gt;&#xa; listener)&#xa;+ removeApplicationListener(ApplicationListener&lt;?&gt;&#xa; listener)&#xa;+ multicastEvent(ApplicationEvent event);" style="text;strokeColor=none;fillColor=none;align=left;verticalAlign=top;spacingLeft=4;spacingRight=4;overflow=hidden;rotatable=0;points=[[0,0.5],[1,0.5]];portConstraint=eastwest;fontSize=13;fontColor=#1D3557;" parent="B0YlaRKhiyRvBtyhOVPh-40" vertex="1">
          <mxGeometry y="48" width="310" height="96" as="geometry" />
        </mxCell>
        <mxCell id="B0YlaRKhiyRvBtyhOVPh-48" style="edgeStyle=orthogonalEdgeStyle;rounded=0;orthogonalLoop=1;jettySize=auto;html=1;entryX=0.478;entryY=0.998;entryDx=0;entryDy=0;entryPerimeter=0;fontColor=#1D3557;strokeColor=#457B9D;fillColor=#A8DADC;" parent="WIyWlLk6GJQsqaUBKTNV-1" source="B0YlaRKhiyRvBtyhOVPh-44" target="B0YlaRKhiyRvBtyhOVPh-43" edge="1">
          <mxGeometry relative="1" as="geometry" />
        </mxCell>
        <mxCell id="B0YlaRKhiyRvBtyhOVPh-49" value="实现" style="edgeLabel;html=1;align=center;verticalAlign=middle;resizable=0;points=[];fontColor=#1D3557;" parent="B0YlaRKhiyRvBtyhOVPh-48" vertex="1" connectable="0">
          <mxGeometry x="-0.2251" y="2" relative="1" as="geometry">
            <mxPoint as="offset" />
          </mxGeometry>
        </mxCell>
        <mxCell id="B0YlaRKhiyRvBtyhOVPh-60" style="edgeStyle=orthogonalEdgeStyle;rounded=0;orthogonalLoop=1;jettySize=auto;html=1;exitX=0.5;exitY=0;exitDx=0;exitDy=0;entryX=0.47;entryY=0.994;entryDx=0;entryDy=0;entryPerimeter=0;fontColor=#1D3557;strokeColor=#457B9D;fillColor=#A8DADC;" parent="WIyWlLk6GJQsqaUBKTNV-1" source="B0YlaRKhiyRvBtyhOVPh-44" target="B0YlaRKhiyRvBtyhOVPh-59" edge="1">
          <mxGeometry relative="1" as="geometry" />
        </mxCell>
        <mxCell id="B0YlaRKhiyRvBtyhOVPh-61" value="实现" style="edgeLabel;html=1;align=center;verticalAlign=middle;resizable=0;points=[];fontColor=#1D3557;" parent="B0YlaRKhiyRvBtyhOVPh-60" vertex="1" connectable="0">
          <mxGeometry x="0.1863" relative="1" as="geometry">
            <mxPoint as="offset" />
          </mxGeometry>
        </mxCell>
        <mxCell id="B0YlaRKhiyRvBtyhOVPh-44" value="AbstractApplicationEventMulticaster" style="swimlane;fontStyle=1;align=center;verticalAlign=top;childLayout=stackLayout;horizontal=1;startSize=26;horizontalStack=0;resizeParent=1;resizeParentMax=0;resizeLast=0;collapsible=1;marginBottom=0;fontColor=#1D3557;strokeColor=#457B9D;fillColor=#A8DADC;" parent="WIyWlLk6GJQsqaUBKTNV-1" vertex="1">
          <mxGeometry x="610" y="350" width="300" height="190" as="geometry" />
        </mxCell>
        <mxCell id="B0YlaRKhiyRvBtyhOVPh-45" value="- applicationListeners: Set&lt;ApplicationListener&#xa;&lt;ApplicationEvent&gt;&gt;" style="text;strokeColor=none;fillColor=none;align=left;verticalAlign=top;spacingLeft=4;spacingRight=4;overflow=hidden;rotatable=0;points=[[0,0.5],[1,0.5]];portConstraint=eastwest;fontColor=#1D3557;" parent="B0YlaRKhiyRvBtyhOVPh-44" vertex="1">
          <mxGeometry y="26" width="300" height="44" as="geometry" />
        </mxCell>
        <mxCell id="B0YlaRKhiyRvBtyhOVPh-46" value="" style="line;strokeWidth=1;fillColor=none;align=left;verticalAlign=middle;spacingTop=-1;spacingLeft=3;spacingRight=3;rotatable=0;labelPosition=right;points=[];portConstraint=eastwest;fontColor=#1D3557;" parent="B0YlaRKhiyRvBtyhOVPh-44" vertex="1">
          <mxGeometry y="70" width="300" height="8" as="geometry" />
        </mxCell>
        <mxCell id="B0YlaRKhiyRvBtyhOVPh-47" value="+ addApplicationListener(ApplicationListener&lt;?&gt;&#xa; listener)&#xa;+ removeApplicationListener(ApplicationListener&lt;?&gt;&#xa; listener)&#xa;# getApplicationListeners(ApplicationEvent event)&#xa;- supportEvent(ApplicationListener&#xa;&lt;ApplicationEvent&gt; listener, ApplicationEvent event)" style="text;strokeColor=none;fillColor=none;align=left;verticalAlign=top;spacingLeft=4;spacingRight=4;overflow=hidden;rotatable=0;points=[[0,0.5],[1,0.5]];portConstraint=eastwest;fontColor=#1D3557;" parent="B0YlaRKhiyRvBtyhOVPh-44" vertex="1">
          <mxGeometry y="78" width="300" height="112" as="geometry" />
        </mxCell>
        <mxCell id="B0YlaRKhiyRvBtyhOVPh-54" style="edgeStyle=orthogonalEdgeStyle;rounded=0;orthogonalLoop=1;jettySize=auto;html=1;entryX=0.467;entryY=1;entryDx=0;entryDy=0;entryPerimeter=0;fontColor=#1D3557;strokeColor=#457B9D;fillColor=#A8DADC;" parent="WIyWlLk6GJQsqaUBKTNV-1" source="B0YlaRKhiyRvBtyhOVPh-50" target="B0YlaRKhiyRvBtyhOVPh-47" edge="1">
          <mxGeometry relative="1" as="geometry" />
        </mxCell>
        <mxCell id="B0YlaRKhiyRvBtyhOVPh-55" value="继承" style="edgeLabel;html=1;align=center;verticalAlign=middle;resizable=0;points=[];fontColor=#1D3557;" parent="B0YlaRKhiyRvBtyhOVPh-54" vertex="1" connectable="0">
          <mxGeometry x="-0.2051" y="3" relative="1" as="geometry">
            <mxPoint as="offset" />
          </mxGeometry>
        </mxCell>
        <mxCell id="B0YlaRKhiyRvBtyhOVPh-50" value="SimpleApplicationEventMulticaster" style="swimlane;fontStyle=1;align=center;verticalAlign=top;childLayout=stackLayout;horizontal=1;startSize=26;horizontalStack=0;resizeParent=1;resizeParentMax=0;resizeLast=0;collapsible=1;marginBottom=0;fontColor=#1D3557;strokeColor=#457B9D;fillColor=#A8DADC;" parent="WIyWlLk6GJQsqaUBKTNV-1" vertex="1">
          <mxGeometry x="630" y="630" width="240" height="84" as="geometry" />
        </mxCell>
        <mxCell id="B0YlaRKhiyRvBtyhOVPh-52" value="" style="line;strokeWidth=1;fillColor=none;align=left;verticalAlign=middle;spacingTop=-1;spacingLeft=3;spacingRight=3;rotatable=0;labelPosition=right;points=[];portConstraint=eastwest;fontColor=#1D3557;" parent="B0YlaRKhiyRvBtyhOVPh-50" vertex="1">
          <mxGeometry y="26" width="240" height="8" as="geometry" />
        </mxCell>
        <mxCell id="B0YlaRKhiyRvBtyhOVPh-53" value="+ SimpleApplicationEventMulticaster&#xa;(BeanFactory beanFactory)&#xa;+ multicastEvent(ApplicationEvent event)" style="text;strokeColor=none;fillColor=none;align=left;verticalAlign=top;spacingLeft=4;spacingRight=4;overflow=hidden;rotatable=0;points=[[0,0.5],[1,0.5]];portConstraint=eastwest;fontColor=#1D3557;" parent="B0YlaRKhiyRvBtyhOVPh-50" vertex="1">
          <mxGeometry y="34" width="240" height="50" as="geometry" />
        </mxCell>
        <mxCell id="B0YlaRKhiyRvBtyhOVPh-57" value="&lt;&lt;接口&gt;&gt;&#xa;BeanFactoryAware" style="swimlane;fontStyle=1;align=left;verticalAlign=top;childLayout=stackLayout;horizontal=1;startSize=40;horizontalStack=0;resizeParent=1;resizeParentMax=0;resizeLast=0;collapsible=1;marginBottom=0;fontSize=13;fontColor=#1D3557;strokeColor=#457B9D;fillColor=#A8DADC;" parent="WIyWlLk6GJQsqaUBKTNV-1" vertex="1">
          <mxGeometry x="460" y="174" width="250" height="80" as="geometry">
            <mxRectangle x="490" y="100" width="220" height="40" as="alternateBounds" />
          </mxGeometry>
        </mxCell>
        <mxCell id="B0YlaRKhiyRvBtyhOVPh-58" value="" style="line;strokeWidth=1;fillColor=none;align=left;verticalAlign=middle;spacingTop=-1;spacingLeft=3;spacingRight=3;rotatable=0;labelPosition=right;points=[];portConstraint=eastwest;fontSize=13;fontColor=#1D3557;labelBackgroundColor=#F1FAEE;strokeColor=#457B9D;" parent="B0YlaRKhiyRvBtyhOVPh-57" vertex="1">
          <mxGeometry y="40" width="250" height="8" as="geometry" />
        </mxCell>
        <mxCell id="B0YlaRKhiyRvBtyhOVPh-59" value="+ setBeanFactory(BeanFactory factory)" style="text;strokeColor=none;fillColor=none;align=left;verticalAlign=top;spacingLeft=4;spacingRight=4;overflow=hidden;rotatable=0;points=[[0,0.5],[1,0.5]];portConstraint=eastwest;fontSize=13;fontColor=#1D3557;" parent="B0YlaRKhiyRvBtyhOVPh-57" vertex="1">
          <mxGeometry y="48" width="250" height="32" as="geometry" />
        </mxCell>
        <mxCell id="B0YlaRKhiyRvBtyhOVPh-62" value="&lt;&lt;接口&gt;&gt;&#xa;ApplicationEventPublisher" style="swimlane;fontStyle=1;align=left;verticalAlign=top;childLayout=stackLayout;horizontal=1;startSize=40;horizontalStack=0;resizeParent=1;resizeParentMax=0;resizeLast=0;collapsible=1;marginBottom=0;fontSize=13;fontColor=#1D3557;strokeColor=#457B9D;fillColor=#A8DADC;" parent="WIyWlLk6GJQsqaUBKTNV-1" vertex="1">
          <mxGeometry x="1130" y="130" width="250" height="80" as="geometry">
            <mxRectangle x="490" y="100" width="220" height="40" as="alternateBounds" />
          </mxGeometry>
        </mxCell>
        <mxCell id="B0YlaRKhiyRvBtyhOVPh-63" value="" style="line;strokeWidth=1;fillColor=none;align=left;verticalAlign=middle;spacingTop=-1;spacingLeft=3;spacingRight=3;rotatable=0;labelPosition=right;points=[];portConstraint=eastwest;fontSize=13;fontColor=#1D3557;labelBackgroundColor=#F1FAEE;strokeColor=#457B9D;" parent="B0YlaRKhiyRvBtyhOVPh-62" vertex="1">
          <mxGeometry y="40" width="250" height="8" as="geometry" />
        </mxCell>
        <mxCell id="B0YlaRKhiyRvBtyhOVPh-64" value="+ publishEvent(ApplicationEvent event)" style="text;strokeColor=none;fillColor=none;align=left;verticalAlign=top;spacingLeft=4;spacingRight=4;overflow=hidden;rotatable=0;points=[[0,0.5],[1,0.5]];portConstraint=eastwest;fontSize=13;fontColor=#1D3557;" parent="B0YlaRKhiyRvBtyhOVPh-62" vertex="1">
          <mxGeometry y="48" width="250" height="32" as="geometry" />
        </mxCell>
        <mxCell id="B0YlaRKhiyRvBtyhOVPh-69" style="edgeStyle=orthogonalEdgeStyle;rounded=0;orthogonalLoop=1;jettySize=auto;html=1;exitX=0.5;exitY=0;exitDx=0;exitDy=0;entryX=0.48;entryY=1;entryDx=0;entryDy=0;entryPerimeter=0;fontColor=#1D3557;strokeColor=#457B9D;fillColor=#A8DADC;" parent="WIyWlLk6GJQsqaUBKTNV-1" source="B0YlaRKhiyRvBtyhOVPh-65" target="B0YlaRKhiyRvBtyhOVPh-64" edge="1">
          <mxGeometry relative="1" as="geometry" />
        </mxCell>
        <mxCell id="B0YlaRKhiyRvBtyhOVPh-70" value="继承" style="edgeLabel;html=1;align=center;verticalAlign=middle;resizable=0;points=[];fontColor=#1D3557;" parent="B0YlaRKhiyRvBtyhOVPh-69" vertex="1" connectable="0">
          <mxGeometry x="0.28" y="-1" relative="1" as="geometry">
            <mxPoint as="offset" />
          </mxGeometry>
        </mxCell>
        <mxCell id="B0YlaRKhiyRvBtyhOVPh-65" value="&lt;&lt;接口&gt;&gt;&#xa;ApplicationContext" style="swimlane;fontStyle=1;align=left;verticalAlign=top;childLayout=stackLayout;horizontal=1;startSize=40;horizontalStack=0;resizeParent=1;resizeParentMax=0;resizeLast=0;collapsible=1;marginBottom=0;fontSize=13;fontColor=#1D3557;strokeColor=#457B9D;fillColor=#A8DADC;" parent="WIyWlLk6GJQsqaUBKTNV-1" vertex="1">
          <mxGeometry x="1130" y="280" width="250" height="48" as="geometry">
            <mxRectangle x="490" y="100" width="220" height="40" as="alternateBounds" />
          </mxGeometry>
        </mxCell>
        <mxCell id="B0YlaRKhiyRvBtyhOVPh-66" value="" style="line;strokeWidth=1;fillColor=none;align=left;verticalAlign=middle;spacingTop=-1;spacingLeft=3;spacingRight=3;rotatable=0;labelPosition=right;points=[];portConstraint=eastwest;fontSize=13;fontColor=#1D3557;labelBackgroundColor=#F1FAEE;strokeColor=#457B9D;" parent="B0YlaRKhiyRvBtyhOVPh-65" vertex="1">
          <mxGeometry y="40" width="250" height="8" as="geometry" />
        </mxCell>
        <mxCell id="B0YlaRKhiyRvBtyhOVPh-74" style="edgeStyle=orthogonalEdgeStyle;rounded=0;orthogonalLoop=1;jettySize=auto;html=1;exitX=0.5;exitY=0;exitDx=0;exitDy=0;entryX=0.5;entryY=1;entryDx=0;entryDy=0;fontColor=#1D3557;strokeColor=#457B9D;fillColor=#A8DADC;" parent="WIyWlLk6GJQsqaUBKTNV-1" source="B0YlaRKhiyRvBtyhOVPh-71" target="B0YlaRKhiyRvBtyhOVPh-65" edge="1">
          <mxGeometry relative="1" as="geometry">
            <Array as="points">
              <mxPoint x="1255" y="350" />
              <mxPoint x="1255" y="350" />
            </Array>
          </mxGeometry>
        </mxCell>
        <mxCell id="B0YlaRKhiyRvBtyhOVPh-76" value="继承" style="edgeLabel;html=1;align=center;verticalAlign=middle;resizable=0;points=[];fontColor=#1D3557;" parent="B0YlaRKhiyRvBtyhOVPh-74" vertex="1" connectable="0">
          <mxGeometry x="0.2468" y="2" relative="1" as="geometry">
            <mxPoint as="offset" />
          </mxGeometry>
        </mxCell>
        <mxCell id="B0YlaRKhiyRvBtyhOVPh-71" value="&lt;&lt;接口&gt;&gt;&#xa;ConfigurableApplicationContext" style="swimlane;fontStyle=1;align=left;verticalAlign=top;childLayout=stackLayout;horizontal=1;startSize=40;horizontalStack=0;resizeParent=1;resizeParentMax=0;resizeLast=0;collapsible=1;marginBottom=0;fontSize=13;fontColor=#1D3557;strokeColor=#457B9D;fillColor=#A8DADC;" parent="WIyWlLk6GJQsqaUBKTNV-1" vertex="1">
          <mxGeometry x="1120" y="472" width="250" height="48" as="geometry">
            <mxRectangle x="490" y="100" width="220" height="40" as="alternateBounds" />
          </mxGeometry>
        </mxCell>
        <mxCell id="B0YlaRKhiyRvBtyhOVPh-72" value="" style="line;strokeWidth=1;fillColor=none;align=left;verticalAlign=middle;spacingTop=-1;spacingLeft=3;spacingRight=3;rotatable=0;labelPosition=right;points=[];portConstraint=eastwest;fontSize=13;fontColor=#1D3557;labelBackgroundColor=#F1FAEE;strokeColor=#457B9D;" parent="B0YlaRKhiyRvBtyhOVPh-71" vertex="1">
          <mxGeometry y="40" width="250" height="8" as="geometry" />
        </mxCell>
        <mxCell id="B0YlaRKhiyRvBtyhOVPh-81" style="edgeStyle=orthogonalEdgeStyle;rounded=0;orthogonalLoop=1;jettySize=auto;html=1;exitX=0.5;exitY=0;exitDx=0;exitDy=0;entryX=0.5;entryY=1;entryDx=0;entryDy=0;fontColor=#1D3557;strokeColor=#457B9D;fillColor=#A8DADC;" parent="WIyWlLk6GJQsqaUBKTNV-1" source="B0YlaRKhiyRvBtyhOVPh-77" target="B0YlaRKhiyRvBtyhOVPh-71" edge="1">
          <mxGeometry relative="1" as="geometry" />
        </mxCell>
        <mxCell id="B0YlaRKhiyRvBtyhOVPh-82" value="实现" style="edgeLabel;html=1;align=center;verticalAlign=middle;resizable=0;points=[];fontColor=#1D3557;" parent="B0YlaRKhiyRvBtyhOVPh-81" vertex="1" connectable="0">
          <mxGeometry x="0.2267" y="-2" relative="1" as="geometry">
            <mxPoint as="offset" />
          </mxGeometry>
        </mxCell>
        <mxCell id="B0YlaRKhiyRvBtyhOVPh-91" style="edgeStyle=orthogonalEdgeStyle;rounded=0;orthogonalLoop=1;jettySize=auto;html=1;exitX=0.25;exitY=0;exitDx=0;exitDy=0;entryX=1;entryY=0.5;entryDx=0;entryDy=0;fontSize=12;fontColor=#FF3333;strokeColor=#457B9D;fillColor=#A8DADC;" parent="WIyWlLk6GJQsqaUBKTNV-1" source="B0YlaRKhiyRvBtyhOVPh-77" target="B0YlaRKhiyRvBtyhOVPh-47" edge="1">
          <mxGeometry relative="1" as="geometry">
            <Array as="points">
              <mxPoint x="1173" y="580" />
              <mxPoint x="1090" y="580" />
              <mxPoint x="1090" y="484" />
            </Array>
          </mxGeometry>
        </mxCell>
        <mxCell id="B0YlaRKhiyRvBtyhOVPh-92" value="依赖" style="edgeLabel;html=1;align=center;verticalAlign=middle;resizable=0;points=[];fontSize=11;fontColor=#000000;" parent="B0YlaRKhiyRvBtyhOVPh-91" vertex="1" connectable="0">
          <mxGeometry x="-0.27" relative="1" as="geometry">
            <mxPoint as="offset" />
          </mxGeometry>
        </mxCell>
        <mxCell id="B0YlaRKhiyRvBtyhOVPh-77" value="AbstractApplicationContext" style="swimlane;fontStyle=1;align=left;verticalAlign=top;childLayout=stackLayout;horizontal=1;startSize=30;horizontalStack=0;resizeParent=1;resizeParentMax=0;resizeLast=0;collapsible=1;marginBottom=0;fontSize=13;fontColor=#1D3557;strokeColor=#457B9D;fillColor=#A8DADC;" parent="WIyWlLk6GJQsqaUBKTNV-1" vertex="1">
          <mxGeometry x="1100" y="610" width="290" height="150" as="geometry">
            <mxRectangle x="490" y="100" width="220" height="40" as="alternateBounds" />
          </mxGeometry>
        </mxCell>
        <mxCell id="B0YlaRKhiyRvBtyhOVPh-80" value="-&amp;nbsp;applicationEventMulticaster: ApplicationEventMulticaster" style="text;html=1;strokeColor=none;fillColor=none;align=left;verticalAlign=middle;whiteSpace=wrap;rounded=0;fontColor=#1D3557;" parent="B0YlaRKhiyRvBtyhOVPh-77" vertex="1">
          <mxGeometry y="30" width="290" height="30" as="geometry" />
        </mxCell>
        <mxCell id="B0YlaRKhiyRvBtyhOVPh-78" value="" style="line;strokeWidth=1;fillColor=none;align=left;verticalAlign=middle;spacingTop=-1;spacingLeft=3;spacingRight=3;rotatable=0;labelPosition=right;points=[];portConstraint=eastwest;fontSize=13;fontColor=#1D3557;labelBackgroundColor=#F1FAEE;strokeColor=#457B9D;" parent="B0YlaRKhiyRvBtyhOVPh-77" vertex="1">
          <mxGeometry y="60" width="290" height="8" as="geometry" />
        </mxCell>
        <mxCell id="B0YlaRKhiyRvBtyhOVPh-79" value="+ publishEvent(ApplicaitonEvent event)&#xa;- initApplicationEventMulticaster&#xa;(ConfigurableListableBeanFactory beanFactory)&#xa;- registerListeners()&#xa;- finishRefresh()" style="text;strokeColor=none;fillColor=none;align=left;verticalAlign=top;spacingLeft=4;spacingRight=4;overflow=hidden;rotatable=0;points=[[0,0.5],[1,0.5]];portConstraint=eastwest;fontSize=12;fontColor=#1D3557;" parent="B0YlaRKhiyRvBtyhOVPh-77" vertex="1">
          <mxGeometry y="68" width="290" height="82" as="geometry" />
        </mxCell>
        <mxCell id="B0YlaRKhiyRvBtyhOVPh-90" value="&lt;font color=&quot;#ff3333&quot; style=&quot;font-size: 12px;&quot;&gt;1. 初始化事件广播器: 包括实例化事件广播器; 注册广播器对象到单例对象容器中。&lt;br style=&quot;font-size: 12px;&quot;&gt;2.&amp;nbsp;注册事件监听器到事件广播器的容器中。&lt;br style=&quot;font-size: 12px;&quot;&gt;3.&amp;nbsp;发布容器刷新完成事件&lt;/font&gt;" style="text;html=1;strokeColor=none;fillColor=none;align=left;verticalAlign=middle;whiteSpace=wrap;rounded=0;fontColor=#1D3557;fontSize=12;" parent="WIyWlLk6GJQsqaUBKTNV-1" vertex="1">
          <mxGeometry x="900" y="640" width="190" height="105" as="geometry" />
        </mxCell>
      </root>
    </mxGraphModel>
  </diagram>
</mxfile>
